<?xml version="1.0" encoding="UTF-8"?>
<svg version="1.1" xmlns="http://www.w3.org/2000/svg" width="226" height="240">
<path d="M0 0 C4.33845981 1.44615327 5.6923404 4.7788887 8 8.5 C8.97619108 10.04450565 9.95276531 11.58876919 10.9296875 13.1328125 C11.43209961 13.93235352 11.93451172 14.73189453 12.45214844 15.55566406 C13.99135361 17.9863458 15.55632087 20.39804831 17.1328125 22.8046875 C17.63425781 23.57103516 18.13570312 24.33738281 18.65234375 25.12695312 C19.61946212 26.60328368 20.58816316 28.07857891 21.55859375 29.55273438 C21.99558594 30.22369141 22.43257812 30.89464844 22.8828125 31.5859375 C23.26840332 32.1742334 23.65399414 32.7625293 24.05126953 33.36865234 C25 35 25 35 26 38 C25.25234375 38.54269531 24.5046875 39.08539063 23.734375 39.64453125 C22.74953125 40.35996094 21.7646875 41.07539062 20.75 41.8125 C19.77546875 42.52019531 18.8009375 43.22789063 17.796875 43.95703125 C15.51810991 45.62154821 13.25234178 47.30001823 11 49 C11.43570313 49.6084375 11.87140625 50.216875 12.3203125 50.84375 C24.80937558 69.22592076 28.63286249 90.69355078 24.81640625 112.578125 C20.11599701 132.2793618 9.48328531 149.36056549 -7.96044922 160.13354492 C-15.71973289 164.73034232 -23.13208205 166.61438782 -32 168 C-33.21912211 165.56175578 -33.12689943 163.99949615 -33.12939453 161.27392578 C-33.13245605 160.27887527 -33.13551758 159.28382477 -33.13867188 158.25862122 C-33.13673828 157.16522934 -33.13480469 156.07183746 -33.1328125 154.9453125 C-33.13458496 153.80064011 -33.13635742 152.65596771 -33.13818359 151.47660828 C-33.14657535 141.0462241 -33.09796469 130.61574283 -33.04006958 120.18553162 C-32.99895796 112.2930533 -33.01829693 104.40415486 -33.09524536 96.51171875 C-33.13371598 91.74404528 -33.13157763 86.97695581 -33.12005615 82.20916748 C-33.12333797 79.95439538 -33.14390136 77.69957877 -33.18218994 75.44512939 C-33.46353808 57.93275645 -33.46353808 57.93275645 -29.83886719 53.14599609 C-27.27159415 51.3268432 -24.90742896 50.17074486 -22 49 C-20.68 48.01 -19.36 47.02 -18 46 C-22.62 44.02 -27.24 42.04 -32 40 C-33.20535714 27.67857143 -33.20535714 27.67857143 -32 24 C-21.89502489 25.46003443 -13.14426299 27.92369016 -4.984375 34.2421875 C-1.94091701 35.40445295 0.09062794 34.19169194 3 33 C2.57589844 32.33355469 2.15179688 31.66710937 1.71484375 30.98046875 C0.48223028 29.04350472 -0.74947796 27.10596444 -1.98046875 25.16796875 C-3.30965497 23.08292034 -4.64543046 21.00205546 -5.98828125 18.92578125 C-6.61089844 17.96027344 -7.23351562 16.99476562 -7.875 16 C-8.44992188 15.113125 -9.02484375 14.22625 -9.6171875 13.3125 C-11 11 -11 11 -12 8 C-11.21753906 7.50628906 -10.43507812 7.01257812 -9.62890625 6.50390625 C-8.11103516 5.54291016 -8.11103516 5.54291016 -6.5625 4.5625 C-5.55316406 3.92441406 -4.54382813 3.28632812 -3.50390625 2.62890625 C-1.15446165 1.22350458 -1.15446165 1.22350458 0 0 Z M-10.0625 60.9375 C-10.96097656 61.48277344 -11.85945313 62.02804688 -12.78515625 62.58984375 C-14.88938742 63.81715153 -14.88938742 63.81715153 -16 65 C-16.09502416 67.49492388 -16.12557566 69.96206014 -16.11352539 72.45727539 C-16.11367142 73.23770706 -16.11381744 74.01813873 -16.1139679 74.82221985 C-16.11326858 77.4140598 -16.10547536 80.00582878 -16.09765625 82.59765625 C-16.09579213 84.3898464 -16.0943682 86.18203706 -16.09336853 87.97422791 C-16.08954284 92.70070797 -16.07971212 97.42715752 -16.06866455 102.15362549 C-16.05845153 106.9728555 -16.05387115 111.79209042 -16.04882812 116.61132812 C-16.03808989 126.07423219 -16.02101286 135.53711356 -16 145 C-14.88560547 144.37617432 -13.77121094 143.75234863 -12.62304688 143.10961914 C-11.68277649 142.58326622 -11.68277649 142.58326622 -10.72351074 142.04627991 C-0.50301251 135.84179178 5.3698188 122.31737948 8.2734375 111.359375 C11.78029476 95.14487367 9.87339647 78.87541018 1.46484375 64.34765625 C0.96082031 63.59355469 0.45679688 62.83945313 -0.0625 62.0625 C-0.56910156 61.29035156 -1.07570312 60.51820312 -1.59765625 59.72265625 C-2.06042969 59.15417969 -2.52320313 58.58570313 -3 58 C-5.92195181 58 -7.58842257 59.42457495 -10.0625 60.9375 Z " fill="#FBFBFB" transform="translate(152,36)"/>
<path d="M0 0 C3.19624262 1.53837846 6.21605574 3.28866532 9.25 5.125 C10.14203125 5.66382813 11.0340625 6.20265625 11.953125 6.7578125 C12.96632813 7.37269531 12.96632813 7.37269531 14 8 C10.44801322 14.72665628 6.6793595 21.22233085 2.515625 27.58984375 C1.19873004 29.68397826 0.05722154 31.76636036 -1 34 C2.87116165 35.09936313 4.53825015 35.2213716 8.2265625 33.453125 C9.36693219 32.7305409 10.49951313 31.99555355 11.625 31.25 C18.57313956 26.94846066 25.68043342 24 34 24 C34 29.28 34 34.56 34 40 C29.38 41.98 24.76 43.96 20 46 C21.753125 47.27875 23.50625 48.5575 25.3125 49.875 C26.29863281 50.59429687 27.28476563 51.31359375 28.30078125 52.0546875 C30.17523115 53.4055935 32.07752993 54.71835329 34 56 C34.36914349 57.99524117 34.36914349 57.99524117 34.36076355 60.49246216 C34.36488754 61.43759674 34.36901154 62.38273132 34.3732605 63.35650635 C34.36247467 64.39659851 34.35168884 65.43669067 34.34057617 66.50830078 C34.34123329 68.14733871 34.34123329 68.14733871 34.34190369 69.81948853 C34.33980731 73.44494257 34.31643584 77.06993886 34.29296875 80.6953125 C34.28737583 83.20351916 34.2831043 85.71172908 34.28010559 88.21994019 C34.26980671 94.15566431 34.24614291 100.09124063 34.21605712 106.02688873 C34.17926528 113.44628187 34.16312895 120.86569529 34.14648438 128.28515625 C34.11427761 141.52352156 34.06362601 154.76175034 34 168 C32.27000269 167.70668062 30.54103164 167.40730531 28.8125 167.10546875 C27.84957031 166.93942139 26.88664062 166.77337402 25.89453125 166.60229492 C11.0840147 163.52051824 -1.79435897 153.84996934 -10.25 141.5 C-11.17916273 140.00770834 -12.09633789 138.50787021 -13 137 C-13.42925781 136.33871094 -13.85851563 135.67742187 -14.30078125 134.99609375 C-24.21614919 118.81838816 -26.49044219 97.87695511 -22.75 79.5 C-20.25736373 69.5525349 -16.79751366 61.16867228 -11.390625 52.43359375 C-9.83462035 50.17773467 -9.83462035 50.17773467 -10 48 C-12.30595384 46.37053772 -14.60196707 44.8564103 -17 43.375 C-17.66773438 42.95476562 -18.33546875 42.53453125 -19.0234375 42.1015625 C-20.67831454 41.06135408 -22.33866288 40.02985949 -24 39 C-23.1296069 34.98640115 -21.39365557 32.25585089 -19.125 28.8125 C-18.31238005 27.57169313 -17.49988598 26.33080381 -16.6875 25.08984375 C-16.254375 24.43226074 -15.82125 23.77467773 -15.375 23.09716797 C-13.92539302 20.88620846 -12.49213158 18.66532984 -11.0625 16.44140625 C-10.57378418 15.68174561 -10.08506836 14.92208496 -9.58154297 14.1394043 C-8.62702053 12.65546269 -7.67290408 11.17125985 -6.71923828 9.68676758 C-4.57905732 6.37249757 -2.43350966 3.1103799 0 0 Z M5 58 C-4.65440548 68.8051326 -8.82568368 83.73705823 -8.2734375 98.07421875 C-6.68922017 115.02534414 -1.40660403 130.56707915 12 142 C14.64433566 143.26466997 14.64433566 143.26466997 17 144 C18.92951361 142.07048639 18.23764001 138.47194927 18.28808594 135.83740234 C18.30590118 135.08772186 18.32371643 134.33804138 18.34207153 133.56564331 C18.49674175 126.63493192 18.58400397 119.70279357 18.65206528 112.77074242 C18.6982407 108.11202112 18.76561568 103.45581507 18.88476562 98.79833984 C18.99950508 94.29706532 19.05995856 89.79804763 19.0825882 85.29539871 C19.1003513 83.58156742 19.13715472 81.86782088 19.19359589 80.15482712 C19.77585245 70.53061371 19.77585245 70.53061371 15.54602051 62.34991455 C10.64656987 59.09287962 10.64656987 59.09287962 5 58 Z " fill="#FCFCFC" transform="translate(72,36)"/>
<path d="M0 0 C2.52089082 3.78133624 1.83261042 4.66628862 1 9 C0.93421998 11.45754141 0.91430838 13.91668778 0.9375 16.375 C0.94652344 17.62023437 0.95554688 18.86546875 0.96484375 20.1484375 C0.97644531 21.08945313 0.98804688 22.03046875 1 23 C1.66 23.33 2.32 23.66 3 24 C2.67 25.65 2.34 27.3 2 29 C-1.91929585 25.08070415 -1.12854444 19.07248866 -1.13671875 13.81640625 C-1.13285156 12.96949219 -1.12898438 12.12257812 -1.125 11.25 C-1.12886719 10.38761719 -1.13273437 9.52523437 -1.13671875 8.63671875 C-1.13542969 7.81300781 -1.13414063 6.98929687 -1.1328125 6.140625 C-1.13168457 5.39329102 -1.13055664 4.64595703 -1.12939453 3.87597656 C-1 2 -1 2 0 0 Z " fill="#ECEEED" transform="translate(49,121)"/>
<path d="M0 0 C0.99 0.33 1.98 0.66 3 1 C1.58536585 8.47735192 1.58536585 8.47735192 -0.75 10.5625 C-4.10873296 14.20112738 -5.92266812 18.53884464 -8 23 C-9 20 -9 20 -7.41796875 16.49609375 C-6.68483017 15.13759194 -5.94086561 13.78488992 -5.1875 12.4375 C-4.81818359 11.75236328 -4.44886719 11.06722656 -4.06835938 10.36132812 C-2.56849618 7.61741324 -1.22222615 5.22222615 1 3 C0.67 2.01 0.34 1.02 0 0 Z " fill="#EDEEED" transform="translate(62,82)"/>
<path d="M0 0 C3.41626096 1.4941278 5.82750468 3.48250854 8.5625 6 C10.99729578 8.23360692 13.24337668 10.16225112 16 12 C15.67 12.66 15.34 13.32 15 14 C9.5355194 10.12518648 4.44425263 6.04144908 0 1 C0 0.67 0 0.34 0 0 Z " fill="#E7E7E7" transform="translate(65,181)"/>
<path d="M0 0 C1.32 0 2.64 0 4 0 C3.8125 2.3125 3.8125 2.3125 3 5 C0.6875 6.6875 0.6875 6.6875 -2 8 C-2.763125 8.391875 -3.52625 8.78375 -4.3125 9.1875 C-4.869375 9.455625 -5.42625 9.72375 -6 10 C-6 9.01 -6 8.02 -6 7 C-3.69 5.68 -1.38 4.36 1 3 C0.67 2.01 0.34 1.02 0 0 Z " fill="#F4F4F4" transform="translate(133,80)"/>
<path d="M0 0 C3.88862987 1.26117725 5.89375599 2.45264167 8 6 C8 6.66 8 7.32 8 8 C8.66 8.33 9.32 8.66 10 9 C9.34 9.66 8.68 10.32 8 11 C5.525 7.04 5.525 7.04 3 3 C1.35 3.33 -0.3 3.66 -2 4 C-1.34 2.68 -0.68 1.36 0 0 Z " fill="#E5E5E5" transform="translate(146,92)"/>
<path d="M0 0 C0.33 0.66 0.66 1.32 1 2 C0.34 2 -0.32 2 -1 2 C-2.0257259 6.41062136 -2.03684712 8.92630576 0 13 C-3.08089673 10.22719294 -4.68775452 7.93673644 -6 4 C-4.02 2.68 -2.04 1.36 0 0 Z " fill="#E6E6E6" transform="translate(146,40)"/>
<path d="M0 0 C0.66 0.33 1.32 0.66 2 1 C1.34 2.32 0.68 3.64 0 5 C1.98 5.66 3.96 6.32 6 7 C6 7.66 6 8.32 6 9 C2.22454612 7.90931332 -0.47043472 7.0916909 -3 4 C-2.01 2.68 -1.02 1.36 0 0 Z " fill="#EBEBEB" transform="translate(71,65)"/>
<path d="M0 0 C0.66 0 1.32 0 2 0 C3.5078125 1.8984375 3.5078125 1.8984375 5.125 4.375 C5.66382813 5.18710937 6.20265625 5.99921875 6.7578125 6.8359375 C8 9 8 9 8 11 C6.125 10.875 6.125 10.875 4 10 C2.875 7.1875 2.875 7.1875 2 4 C1.36184656 2.65278717 0.70674629 1.31252882 0 0 Z " fill="#F1F1F1" transform="translate(162,51)"/>
<path d="M0 0 C1.32 0.66 2.64 1.32 4 2 C3.01 2.495 3.01 2.495 2 3 C1.34 2.67 0.68 2.34 0 2 C-0.268125 2.969375 -0.53625 3.93875 -0.8125 4.9375 C-1.204375 5.948125 -1.59625 6.95875 -2 8 C-2.99 8.33 -3.98 8.66 -5 9 C-3.7508258 5.54074837 -2.32472205 2.85306797 0 0 Z " fill="#EFEFEF" transform="translate(72,36)"/>
<path d="M0 0 C3.465 1.98 3.465 1.98 7 4 C6.01 5.98 5.02 7.96 4 10 C3.67 10 3.34 10 3 10 C3.0928125 8.576875 3.0928125 8.576875 3.1875 7.125 C3.125625 6.09375 3.06375 5.0625 3 4 C2.01 3.34 1.02 2.68 0 2 C0 1.34 0 0.68 0 0 Z " fill="#E6E6E6" transform="translate(79,40)"/>
<path d="M0 0 C4.75481646 0.57634139 7.97048212 2.55068521 12 5 C9 6 9 6 6.73828125 5.00390625 C5.93777344 4.52824219 5.13726562 4.05257812 4.3125 3.5625 C3.50425781 3.08941406 2.69601563 2.61632812 1.86328125 2.12890625 C1.24839844 1.75636719 0.63351563 1.38382813 0 1 C0 0.67 0 0.34 0 0 Z " fill="#E7E7E7" transform="translate(82,195)"/>
<path d="M0 0 C1.5 1.3125 1.5 1.3125 3 3 C3 3.99 3 4.98 3 6 C3.66 6 4.32 6 5 6 C5.33 7.65 5.66 9.3 6 11 C5.34 11 4.68 11 4 11 C3.32591692 9.73308493 2.66099503 8.46129251 2 7.1875 C1.62875 6.47980469 1.2575 5.77210938 0.875 5.04296875 C0 3 0 3 0 0 Z " fill="#EBEBEB" transform="translate(53,159)"/>
<path d="M0 0 C3.465 1.98 3.465 1.98 7 4 C7 4.66 7 5.32 7 6 C4.0625 5.25 4.0625 5.25 1 4 C0.125 1.875 0.125 1.875 0 0 Z " fill="#F0F1F0" transform="translate(95,85)"/>
<path d="M0 0 C3 1 3 1 4.16796875 2.84765625 C4.50441406 3.57855469 4.84085938 4.30945313 5.1875 5.0625 C5.53167969 5.79597656 5.87585938 6.52945313 6.23046875 7.28515625 C6.48441406 7.85105469 6.73835937 8.41695312 7 9 C6.34 9 5.68 9 5 9 C3.7109375 7.5390625 3.7109375 7.5390625 2.375 5.625 C1.92898437 4.99851562 1.48296875 4.37203125 1.0234375 3.7265625 C0 2 0 2 0 0 Z " fill="#EEEEEE" transform="translate(163,88)"/>
<path d="M0 0 C2.64465038 3.1254959 3.84414715 6.08788267 5 10 C0.07692308 5.69230769 0.07692308 5.69230769 -0.3125 2.1875 C-0.209375 1.465625 -0.10625 0.74375 0 0 Z " fill="#E7E7E7" transform="translate(68,155)"/>
</svg>
