<svg xmlns="http://www.w3.org/2000/svg" viewBox="0 0 24 24" fill="currentColor">
  <path d="M12 2C10.9 2 10 2.9 10 4V6H8C6.9 6 6 6.9 6 8V10H4C2.9 10 2 10.9 2 12C2 13.1 2.9 14 4 14H6V16C6 17.1 6.9 18 8 18H10V20C10 21.1 10.9 22 12 22C13.1 22 14 21.1 14 20V18H16C17.1 18 18 17.1 18 16V14H20C21.1 14 22 13.1 22 12C22 10.9 21.1 10 20 10H18V8C18 6.9 17.1 6 16 6H14V4C14 2.9 13.1 2 12 2M12 8C13.1 8 14 8.9 14 10C14 11.1 13.1 12 12 12C10.9 12 10 11.1 10 10C10 8.9 10.9 8 12 8M12 12C13.1 12 14 12.9 14 14C14 15.1 13.1 16 12 16C10.9 16 10 15.1 10 14C10 12.9 10.9 12 12 12Z"/>
</svg>
